<?xml version="1.0" standalone="no"?>
<!DOCTYPE svg PUBLIC "-//W3C//DTD SVG 20010904//EN"
 "http://www.w3.org/TR/2001/REC-SVG-20010904/DTD/svg10.dtd">
<svg version="1.0" xmlns="http://www.w3.org/2000/svg"
 width="625.000000pt" height="350.000000pt" viewBox="0 0 625.000000 350.000000"
 preserveAspectRatio="xMidYMid meet">

<g transform="translate(0.000000,350.000000) scale(0.100000,-0.100000)"
fill="#000000" stroke="none">
<path d="M45 3475 c66 -32 135 -101 202 -202 43 -64 55 -91 57 -127 1 -25 -1
-46 -5 -46 -4 0 -9 -8 -11 -17 -2 -11 -24 17 -57 77 -29 52 -74 120 -99 150
-52 63 -118 130 -126 130 -3 0 -6 -25 -6 -55 0 -35 4 -55 12 -55 24 0 127
-122 167 -199 22 -43 41 -86 41 -95 0 -18 -21 -21 -48 -7 -37 19 -128 59 -149
65 -23 7 -23 6 -23 -81 0 -56 4 -93 12 -101 9 -9 9 -15 0 -24 -9 -9 -12 -120
-12 -439 0 -370 2 -428 15 -433 16 -6 15 -24 -3 -69 -8 -18 -12 -105 -12 -247
0 -196 2 -218 16 -216 9 0 19 -5 21 -11 3 -8 -4 -13 -16 -13 l-21 0 0 -730 0
-730 990 0 c612 0 990 4 990 9 0 6 -4 13 -10 16 -5 3 -10 15 -10 25 0 16 5 18
33 13 29 -4 37 -1 56 23 16 20 24 25 33 16 14 -14 13 -69 -3 -88 -10 -12 97
-14 795 -14 l806 0 0 33 c0 18 -5 38 -11 44 -20 20 -15 96 9 130 25 35 27 54
10 84 -11 17 -10 23 0 26 9 3 7 11 -7 29 -29 37 -27 146 3 181 23 27 60 27 55
1 -2 -7 0 -23 5 -35 6 -19 11 -21 32 -13 44 17 58 10 99 -47 61 -85 62 -86 95
-66 25 14 32 14 61 3 39 -17 87 -65 95 -95 6 -25 -17 -88 -42 -112 -15 -15
-15 -18 2 -30 10 -7 26 -13 35 -13 10 0 21 -5 24 -10 10 -17 25 -11 25 9 0 11
14 31 32 46 27 23 33 24 40 11 11 -19 -15 -84 -37 -92 -19 -8 -20 -33 0 -40 8
-4 15 -15 15 -25 0 -16 7 -19 40 -19 38 0 40 1 30 20 -6 11 -8 25 -5 30 3 6 1
10 -6 10 -6 0 0 11 14 24 39 36 45 73 22 129 -6 14 -2 17 21 18 l29 1 -32 9
c-42 12 -49 25 -17 33 19 5 30 1 43 -15 14 -18 21 -20 39 -10 26 14 99 14 107
0 4 -6 -2 -13 -13 -16 -13 -3 -18 -11 -15 -22 6 -24 -35 -36 -57 -16 -32 29
-77 -12 -47 -42 4 -4 96 -7 205 -8 191 0 198 -1 230 -24 26 -18 32 -29 30 -50
-3 -24 1 -27 51 -36 30 -6 56 -16 59 -23 3 -9 154 -12 653 -12 l649 0 -2 577
-3 578 -210 41 c-341 67 -881 171 -1010 194 -66 12 -135 28 -154 36 -18 8 -44
14 -57 14 -17 0 -24 6 -24 19 0 16 6 18 48 14 47 -5 280 -51 487 -97 97 -22
240 -50 770 -151 72 -14 136 -25 143 -25 9 0 12 24 12 89 l0 88 -117 6 c-69 3
-122 2 -128 -4 -15 -15 -51 -10 -69 10 -18 20 -84 34 -218 47 -45 4 -68 11
-68 19 0 23 51 26 166 9 63 -10 116 -15 119 -13 2 3 0 34 -5 70 -10 69 1 174
19 192 16 16 60 -9 67 -38 4 -15 4 -75 2 -135 -5 -124 -13 -114 97 -125 33 -3
77 -8 98 -11 l37 -4 0 458 c0 343 -3 461 -12 470 -7 7 -27 12 -45 12 -18 0
-33 4 -33 9 0 5 -9 12 -19 16 -26 8 -32 41 -12 59 17 15 87 16 110 2 5 -4 9
214 10 534 l2 540 -910 0 c-869 0 -909 -1 -904 -18 7 -27 -30 -54 -76 -55
l-40 -2 20 -21 c13 -14 19 -31 16 -50 -4 -30 -6 -31 -68 -33 l-36 -1 9 -61 c4
-33 6 -65 3 -69 -3 -4 49 -9 116 -9 74 -1 128 -6 140 -14 28 -17 24 -46 -8
-58 -38 -15 -199 -6 -245 14 -22 9 -68 16 -115 16 -362 3 -383 2 -383 -13 0
-22 -40 -56 -66 -56 -20 0 -22 -4 -17 -42 3 -24 7 -45 9 -47 2 -2 34 -6 71 -8
79 -5 120 -20 126 -45 6 -22 70 -24 107 -3 30 17 153 20 198 4 28 -9 31 -14
26 -37 -4 -15 -16 -45 -28 -66 -17 -33 -27 -41 -56 -44 -42 -5 -57 -23 -29
-36 14 -7 36 -4 72 7 46 16 61 16 127 5 65 -11 75 -16 78 -35 2 -13 8 -20 17
-17 7 3 15 2 18 -3 3 -4 -13 -9 -34 -11 -21 -1 -39 2 -39 8 0 11 -37 7 -90 -9
-19 -6 -48 -11 -63 -11 -16 0 -35 -7 -43 -15 -12 -11 -29 -14 -72 -9 -66 7
-113 31 -91 45 10 6 11 9 2 9 -26 0 -12 26 14 28 41 3 54 22 16 22 -44 0 -63
-9 -63 -31 0 -10 -3 -18 -7 -17 -5 1 -21 -4 -38 -11 -32 -13 -48 -12 -135 13
-72 21 -207 21 -249 0 -25 -13 -38 -13 -66 -4 -39 13 -50 9 -58 -20 -4 -16 1
-23 20 -31 14 -5 37 -18 52 -28 44 -32 116 -32 118 0 3 40 23 52 78 44 79 -10
108 -52 65 -95 -11 -11 -20 -22 -20 -24 0 -9 51 -18 115 -19 63 -2 70 -4 82
-27 14 -29 53 -42 104 -34 20 4 39 2 43 -4 11 -18 45 -1 65 34 24 40 34 41 78
12 28 -19 32 -28 27 -48 -8 -35 -21 -48 -52 -52 -35 -4 -39 -31 -8 -51 23 -16
27 -15 55 0 41 24 63 75 55 128 -5 38 -4 44 16 50 28 9 79 -1 104 -20 17 -13
18 -18 7 -39 -8 -13 -22 -27 -33 -29 -17 -5 -18 -11 -12 -66 10 -95 -27 -135
-86 -94 -26 18 -80 28 -80 14 0 -21 -71 -99 -97 -105 -15 -4 -42 -14 -60 -23
-18 -10 -35 -15 -38 -11 -5 4 -11 43 -14 91 -1 4 -42 7 -91 7 -85 0 -91 -1
-100 -22 -5 -13 -9 -18 -9 -11 -1 6 -11 13 -23 15 -22 3 -23 7 -23 110 0 58
-3 109 -7 113 -4 4 -53 3 -110 -2 -57 -5 -152 -6 -213 -3 l-110 5 -3 33 c-4
37 -22 34 -22 -5 0 -18 -4 -24 -15 -20 -8 4 -17 1 -21 -5 -5 -7 -10 -3 -16 11
-5 16 -3 27 7 37 21 22 19 41 -2 21 -17 -14 -20 -13 -45 8 -16 13 -23 27 -18
30 6 3 10 3 11 -2 0 -4 4 0 8 10 6 17 8 17 34 -3 l27 -21 0 24 c0 14 -6 28
-12 30 -7 3 10 6 38 6 44 1 52 4 57 23 9 33 1 38 -58 38 -57 0 -85 7 -85 21 0
5 3 8 8 8 32 -5 35 1 29 74 l-6 72 16 -42 c18 -46 43 -66 37 -30 -2 12 -2 17
1 11 11 -22 45 -2 62 35 9 20 21 43 28 51 6 8 17 33 24 55 8 22 24 52 37 67
12 16 26 37 29 48 5 17 13 20 44 16 29 -3 37 0 38 13 6 68 5 85 -5 89 -7 2
-12 17 -12 33 0 19 -5 29 -15 29 -8 0 -15 4 -15 9 0 5 7 14 15 21 12 10 15 10
16 -1 0 -8 8 5 18 29 9 24 22 47 28 50 5 4 16 21 24 37 10 21 23 31 41 33 24
3 45 23 72 70 6 9 -161 12 -818 12 -612 0 -826 -3 -826 -11 0 -7 8 -18 18 -25
31 -24 -9 -16 -57 11 l-43 25 -349 0 c-216 0 -349 -4 -349 -10 0 -5 21 -21 48
-36 81 -46 111 -68 123 -91 7 -13 16 -23 20 -23 5 0 32 -25 61 -56 l53 -55 51
6 c48 6 55 4 88 -25 20 -18 36 -38 36 -46 0 -11 16 -14 64 -14 56 0 65 -3 71
-20 9 -29 -9 -46 -56 -54 -31 -5 -52 -2 -83 13 -22 10 -63 22 -91 26 -67 9
-183 75 -215 122 -32 47 -110 123 -128 123 -4 1 -41 32 -82 70 l-74 70 -586
-1 -585 -1 50 -23z m6178 -39 c4 -27 4 -53 0 -57 -4 -4 -55 -32 -113 -62 -58
-30 -115 -60 -128 -68 -35 -22 -58 -1 -54 47 2 22 8 46 12 54 10 18 239 138
260 136 9 -1 17 -18 23 -50z m-3985 18 c27 -19 28 -54 3 -85 -17 -21 -22 -22
-38 -11 -10 7 -33 19 -50 27 -22 10 -33 22 -33 36 0 13 11 25 33 34 42 18 58
18 85 -1z m3620 -156 c25 -25 7 -114 -25 -124 -28 -9 -114 -45 -160 -66 -57
-27 -75 -19 -71 29 3 41 -4 35 143 123 88 53 96 55 113 38z m-3507 -29 c16
-16 20 -28 15 -52 -4 -17 -12 -35 -19 -39 -8 -5 -4 -8 10 -8 15 0 32 -13 49
-40 15 -22 32 -40 38 -40 15 0 76 -50 76 -62 0 -10 136 -190 178 -237 53 -59
78 -81 90 -81 7 0 11 -4 7 -10 -3 -5 8 -16 25 -25 28 -14 32 -14 47 0 12 12
13 19 4 28 -15 15 -14 42 4 57 15 12 16 11 19 -22 1 -7 4 -15 7 -18 3 -3 9
-17 13 -32 5 -24 3 -28 -14 -28 -13 0 -18 -4 -14 -11 3 -6 16 -8 29 -5 14 4
27 0 34 -8 8 -9 25 -13 44 -10 18 2 27 0 20 -4 -8 -5 -1 -14 23 -27 30 -16 40
-17 66 -7 17 6 35 9 39 6 16 -10 9 -39 -11 -52 -12 -7 -25 -24 -30 -37 -10
-26 -39 -35 -41 -12 -1 6 -2 18 -3 26 -2 30 -26 23 -26 -8 l0 -30 -107 -5
c-60 -2 -127 -7 -151 -11 -35 -6 -52 -2 -96 19 -29 14 -62 26 -73 26 -26 0
-53 25 -88 79 -15 24 -40 55 -56 69 -16 13 -27 28 -23 33 3 5 -2 9 -10 9 -8 0
-16 10 -18 22 -2 12 -22 36 -45 53 -23 16 -42 34 -42 38 -1 4 8 17 19 29 11
12 20 29 20 39 0 9 7 29 14 45 12 23 13 29 2 38 -18 15 -25 50 -14 69 7 13 0
25 -27 52 -36 37 -44 60 -22 68 6 2 -5 7 -25 11 -42 8 -68 37 -68 78 0 33 22
47 73 48 25 0 44 -7 58 -21z m2959 -109 c115 -14 176 -28 219 -50 22 -11 45
-20 51 -20 6 0 30 -20 55 -43 61 -60 101 -70 282 -73 148 -2 173 -6 173 -24 0
-16 -30 -19 -350 -35 -63 -4 -167 -16 -230 -27 -148 -26 -142 -25 -147 -10 -3
6 2 12 10 12 8 0 20 7 27 15 7 8 23 15 36 15 13 0 39 9 59 20 21 12 54 20 80
20 25 0 45 4 45 9 0 26 -159 104 -258 127 -53 12 -103 14 -233 10 -146 -5
-168 -4 -173 10 -9 23 -9 22 35 34 66 18 160 29 204 24 22 -3 74 -9 115 -14z
m-4228 -27 c40 -36 4 -72 -47 -46 -55 28 -59 35 -28 49 39 17 54 17 75 -3z
m-192 -8 c24 -28 -14 -43 -73 -28 -18 5 -18 6 -1 24 20 23 57 25 74 4z m1190
-35 c14 -26 -2 -58 -33 -65 -57 -13 -99 -10 -111 8 -16 25 3 50 50 64 58 17
82 15 94 -7z m2694 -6 c21 -20 21 -21 -14 -39 -38 -20 -71 -19 -109 3 -32 18
-40 37 -18 45 30 13 126 7 141 -9z m654 -35 c73 -25 40 -74 -43 -63 -77 10
-95 32 -47 58 33 18 50 19 90 5z m-4699 -26 c39 -23 47 -47 26 -79 -16 -24
-18 -25 -128 -22 l-112 3 -3 38 c-5 63 12 73 125 76 42 1 71 -4 92 -16z m4462
-84 c37 -20 23 -48 -38 -76 -32 -15 -60 -29 -63 -33 -12 -15 -111 -48 -130
-43 -14 4 -30 -3 -49 -21 -17 -17 -30 -23 -33 -16 -5 15 -104 -34 -112 -55 -3
-9 -28 -26 -55 -39 l-50 -23 19 -31 c11 -17 42 -55 70 -83 40 -41 51 -58 47
-77 -5 -25 4 -47 35 -91 21 -29 35 -22 16 8 -10 16 -10 23 0 33 9 9 15 8 26
-7 13 -18 14 -18 25 2 15 29 65 39 96 19 30 -20 35 -20 35 -2 0 15 29 30 39
21 10 -11 18 -140 9 -157 -6 -12 -20 -18 -43 -18 -27 0 -40 -8 -67 -39 -19
-22 -38 -37 -44 -33 -16 11 -74 104 -74 119 0 7 -4 13 -9 13 -5 0 -26 18 -48
40 -27 28 -44 39 -56 34 -18 -7 -24 -34 -7 -34 6 0 10 7 10 15 0 8 5 15 10 15
13 0 13 -17 -1 -25 -6 -4 -7 -19 -4 -36 9 -41 -16 -79 -47 -72 -13 4 -33 13
-45 20 -17 11 -26 12 -43 3 -12 -6 -23 -10 -24 -8 -2 2 -8 11 -13 22 -13 24
12 92 44 122 13 12 23 27 23 33 0 6 7 14 15 17 12 5 8 15 -18 51 -33 47 -54
62 -66 47 -22 -31 -87 -44 -109 -22 -39 39 33 168 93 168 16 0 72 28 115 57
19 13 44 23 55 23 25 1 49 19 58 44 6 16 14 18 57 13 36 -4 53 -2 64 8 8 8 20
15 26 15 6 0 13 7 16 15 3 8 38 31 77 51 74 37 118 40 168 13z m-3152 -56 c14
-15 28 -27 32 -26 5 2 20 -13 35 -32 16 -22 41 -39 66 -47 22 -6 58 -30 80
-52 22 -21 61 -50 87 -62 26 -13 70 -48 99 -79 64 -67 67 -96 15 -124 -16 -8
-23 -8 -23 -1 0 6 -5 8 -10 5 -6 -4 -29 3 -51 14 -22 12 -48 21 -59 21 -13 0
-20 7 -20 18 0 20 -73 73 -153 111 -42 20 -51 31 -82 94 l-34 72 -101 40 c-56
22 -106 45 -112 52 -16 19 47 33 132 28 67 -3 78 -7 99 -32z m-1144 3 c22 -4
45 -11 50 -16 6 -4 28 -13 50 -20 22 -7 63 -24 90 -37 28 -14 95 -42 150 -63
187 -72 370 -150 397 -170 15 -11 31 -20 37 -20 5 0 11 -4 13 -10 3 -8 60 -13
110 -10 15 1 15 4 0 29 -19 34 -11 58 24 71 35 14 87 -12 115 -56 11 -19 25
-34 30 -34 12 0 12 17 -1 25 -13 8 -13 25 1 25 6 0 13 -9 16 -20 3 -13 14 -20
29 -20 13 0 24 -4 24 -10 0 -5 6 -10 14 -10 8 0 16 -7 20 -15 7 -20 -3 -45
-18 -45 -18 0 -35 -42 -29 -72 6 -29 16 -33 108 -43 78 -8 135 -25 135 -41 0
-7 6 -19 13 -26 7 -7 16 -21 20 -31 4 -10 11 -16 16 -12 5 3 13 0 16 -6 8 -13
13 -79 5 -79 -11 0 -27 16 -33 34 -5 13 -13 17 -31 12 -15 -4 -26 -1 -29 7 -4
9 -8 9 -15 -2 -7 -9 -12 -10 -16 -2 -4 6 -12 11 -17 11 -6 0 -8 -4 -5 -8 2 -4
-20 -5 -50 -2 -30 3 -55 2 -57 -3 -7 -21 -46 15 -62 58 -15 39 -21 45 -47 45
-16 0 -39 5 -51 12 -12 7 -51 15 -86 19 -65 7 -82 18 -74 49 3 10 0 21 -6 24
-6 4 -13 -4 -17 -19 l-6 -26 -27 26 c-54 52 -88 72 -151 87 -36 9 -90 27 -120
41 -128 58 -224 97 -397 163 -38 14 -104 41 -148 59 -44 19 -93 39 -108 44
-37 14 -26 31 20 31 20 0 33 3 30 6 -7 7 -31 10 -116 12 -75 3 -60 10 28 16
61 3 75 7 88 26 9 12 18 18 22 12 3 -5 24 -12 46 -16z m4450 -36 c-3 -5 -11
-10 -16 -10 -6 0 -7 5 -4 10 3 6 11 10 16 10 6 0 7 -4 4 -10z m536 -30 c21
-21 39 -47 39 -56 0 -11 -9 -6 -27 16 -16 18 -36 40 -45 49 -18 15 -24 31 -12
31 3 0 23 -18 45 -40z m-5471 4 c0 -8 5 -14 11 -14 5 0 7 5 4 10 -3 6 1 10 9
10 8 0 18 -4 21 -10 3 -5 1 -10 -5 -10 -6 0 -8 -5 -3 -12 11 -19 14 -48 5 -48
-5 0 -36 9 -70 21 -47 16 -62 25 -62 40 0 12 7 19 19 19 11 0 22 4 25 9 9 13
46 1 46 -15z m2470 -29 c0 -8 -2 -15 -4 -15 -2 0 -6 7 -10 15 -3 8 -1 15 4 15
6 0 10 -7 10 -15z m2339 -3 c13 -25 -5 -52 -34 -52 -18 0 -26 7 -31 24 -3 14
-3 30 1 35 10 17 53 13 64 -7z m471 -98 c0 -17 -24 -18 -51 -4 -15 9 -17 15
-9 30 10 19 12 19 35 4 14 -9 25 -23 25 -30z m-267 -3 c18 -18 -12 -36 -84
-50 -82 -16 -120 0 -103 43 9 24 165 29 187 7z m187 10 c0 -12 -36 -21 -82
-21 -37 0 -51 13 -25 23 21 9 107 7 107 -2z m135 -97 c14 -9 25 -23 25 -31 0
-12 -3 -13 -14 -4 -11 10 -13 4 -9 -32 5 -44 -9 -87 -27 -87 -13 0 -39 26 -69
68 -20 29 -22 37 -11 57 23 42 67 54 105 29z m-3748 -26 c-3 -8 -6 -5 -6 6 -1
11 2 17 5 13 3 -3 4 -12 1 -19z m3103 -116 c0 -13 -12 -22 -22 -16 -10 6 -1
24 13 24 5 0 9 -4 9 -8z m-3810 -36 c0 -41 -29 -57 -74 -40 -22 9 -20 27 2 20
12 -4 26 1 37 14 21 23 35 26 35 6z m1779 -10 c-2 -2 -42 -6 -89 -9 -51 -3
-73 -2 -55 3 30 8 152 13 144 6z m71 -26 c0 -5 -13 -3 -30 3 -16 6 -30 15 -30
19 0 4 14 2 30 -3 17 -6 30 -15 30 -19z m342 10 c21 -6 40 -16 44 -22 5 -8 1
-9 -12 -4 -63 25 -240 34 -276 15 -16 -9 -19 -8 -13 2 6 9 3 10 -11 5 -12 -5
-16 -4 -9 3 6 5 21 12 35 14 36 8 199 -1 242 -13z m2513 10 c-3 -5 -11 -10
-16 -10 -6 0 -7 5 -4 10 3 6 11 10 16 10 6 0 7 -4 4 -10z m-3406 -70 c-1 -36
1 -77 5 -91 8 -29 -10 -51 -24 -29 -5 8 -10 6 -15 -7 -6 -13 -11 -3 -19 41
-11 60 -20 70 -68 81 -20 4 -28 12 -28 26 0 26 44 45 105 45 l46 0 -2 -66z
m1651 60 c0 -5 -4 -10 -10 -10 -5 0 -10 5 -10 10 0 6 5 10 10 10 6 0 10 -4 10
-10z m-1353 -6 c-3 -3 -12 -4 -19 -1 -8 3 -5 6 6 6 11 1 17 -2 13 -5z m3097
-16 c4 7 11 12 17 12 14 0 11 -38 -3 -43 -21 -7 -48 12 -48 35 0 21 1 21 13 3
10 -12 16 -14 21 -7z m-5034 -3 c8 -5 28 -16 45 -25 36 -18 42 -39 18 -69
l-19 -23 -37 22 c-23 13 -56 22 -89 24 -62 2 -71 18 -36 58 18 21 31 26 63 24
22 -1 47 -6 55 -11z m4760 -25 c6 -40 -1 -98 -14 -115 -12 -16 -16 -17 -30 -6
-18 15 -22 56 -6 66 6 3 10 12 10 20 0 8 5 26 10 41 11 27 26 24 30 -6z
m-2622 -6 c32 -9 27 -27 -5 -21 l-28 6 28 -12 c28 -11 35 -31 16 -42 -6 -4
-19 2 -30 14 -11 12 -26 21 -34 21 -13 0 -13 3 -3 20 14 21 20 23 56 14z m224
-21 c8 -16 14 -33 11 -39 -5 -13 49 -27 94 -24 18 1 43 -2 55 -6 20 -6 19 -8
-12 -18 -20 -6 -39 -21 -45 -33 -13 -29 -45 -31 -45 -2 0 19 -1 19 -16 5 -22
-23 -34 -20 -34 8 0 19 -6 24 -38 30 -38 6 -38 6 -39 50 -1 44 4 51 42 55 6 0
18 -11 27 -26z m-100 -15 c-7 -7 -12 -8 -12 -2 0 14 12 26 19 19 2 -3 -1 -11
-7 -17z m333 -28 c7 0 15 -15 17 -35 4 -36 -5 -45 -43 -45 -17 0 -18 3 -7 21
10 17 10 23 1 26 -7 3 -13 18 -13 35 0 27 1 28 16 14 8 -9 21 -16 29 -16z
m-1051 0 c-12 -12 -170 -16 -164 -4 3 5 8 8 13 7 4 -2 7 0 7 5 0 4 34 6 76 4
42 -2 72 -7 68 -12z m346 -16 c0 -22 167 -17 181 6 9 12 10 12 5 -3 -3 -10 -6
-25 -6 -33 0 -8 -10 -14 -25 -14 -24 0 -32 -18 -26 -54 1 -5 -5 -6 -13 -3 -9
4 -18 2 -21 -3 -4 -6 9 -10 29 -10 29 0 36 -4 36 -20 0 -11 -3 -20 -7 -20 -5
0 -8 -87 -9 -193 0 -128 -6 -225 -17 -292 -9 -55 -18 -113 -21 -130 -2 -16 -2
4 0 45 12 234 15 547 5 573 -12 30 -41 36 -64 13 -8 -9 -24 -12 -36 -9 -11 3
-28 0 -36 -7 -22 -18 -48 16 -33 43 16 31 39 32 65 3 20 -23 23 -24 23 -8 0
20 -24 45 -53 55 -14 5 -16 11 -8 25 7 13 6 23 -2 31 -9 9 -9 14 3 21 17 11
30 4 30 -16z m-1692 -10 c-4 -32 -32 -54 -48 -38 -17 17 5 64 30 64 17 0 21
-5 18 -26z m2827 -4 c4 -6 -22 -10 -69 -10 -44 0 -76 4 -76 10 0 6 30 10 69
10 39 0 73 -4 76 -10z m-1207 -35 c3 -3 -24 -4 -59 -4 -54 1 -58 3 -29 9 36 7
78 5 88 -5z m-1257 -55 c7 -31 -6 -50 -37 -50 -32 0 -53 42 -34 65 20 24 63
15 71 -15z m2057 -34 c7 -35 12 -81 12 -102 0 -38 2 -40 66 -74 36 -19 68 -39
71 -43 6 -10 -104 47 -197 101 -51 30 -66 44 -71 67 -5 22 -7 24 -8 8 0 -12
-6 -23 -12 -25 -22 -7 -11 -335 16 -477 3 -16 -3 -8 -16 19 -19 41 -43 169
-50 265 -2 22 -8 43 -13 47 -6 4 -6 11 1 20 12 16 5 158 -9 158 -5 0 -7 12 -6
28 l3 27 -79 2 c-43 1 -81 5 -85 9 -8 8 244 -2 282 -11 21 -6 27 -4 27 8 0 16
25 36 46 37 6 0 16 -29 22 -64z m405 34 c-5 -18 -7 -18 -38 -2 -30 16 -31 17
-11 23 33 9 54 0 49 -21z m-1540 13 c-13 -2 -33 -2 -45 0 -13 2 -3 4 22 4 25
0 35 -2 23 -4z m1947 -3 c3 -1 -4 -5 -15 -9 -24 -10 -87 -2 -80 9 4 7 67 6 95
0z m57 -2 c-21 -7 -32 -7 -40 1 -8 8 0 11 29 10 39 -1 39 -1 11 -11z m124 -4
c16 -19 0 -32 -34 -28 -35 4 -34 6 3 14 l35 7 -37 2 c-48 1 -61 21 -15 21 19
0 40 -7 48 -16z m-2642 -10 c10 -9 -35 -3 -49 6 -11 8 -7 9 15 4 17 -4 32 -8
34 -10z m-573 -2 c33 -21 10 -96 -28 -90 -37 5 -44 32 -19 67 23 33 29 35 47
23z m521 -3 c16 -7 23 -13 15 -16 -7 -3 -18 -1 -25 5 -8 6 -24 5 -47 -4 -30
-12 -31 -14 -7 -10 15 2 27 -1 27 -5 0 -5 -12 -9 -26 -9 -14 0 -34 -5 -45 -10
-22 -12 -27 4 -6 17 8 4 16 16 20 26 7 20 51 23 94 6z m1226 4 c-7 -2 -21 -2
-30 0 -10 3 -4 5 12 5 17 0 24 -2 18 -5z m70 0 c-7 -2 -21 -2 -30 0 -10 3 -4
5 12 5 17 0 24 -2 18 -5z m-946 -35 c-3 -7 -5 -2 -5 12 0 14 2 19 5 13 2 -7 2
-19 0 -25z m81 4 c5 -17 -55 -15 -61 2 -3 8 -3 16 -1 19 9 8 57 -8 62 -21z
m1677 -3 c5 -5 -20 -9 -62 -9 -71 0 -103 6 -103 19 0 10 153 1 165 -10z m626
-6 c13 -16 12 -17 -3 -4 -17 13 -22 21 -14 21 2 0 10 -8 17 -17z m1407 5 c8
-8 12 -46 12 -105 0 -80 -3 -96 -20 -113 -26 -26 -36 -25 -56 5 -20 31 -17
182 5 208 16 20 42 22 59 5z m-3545 -5 c-7 -2 -19 -2 -25 0 -7 3 -2 5 12 5 14
0 19 -2 13 -5z m1301 -2 c3 -4 -6 -6 -19 -3 -14 2 -25 6 -25 8 0 8 39 4 44 -5z
m276 5 c0 -2 -11 -6 -25 -8 -14 -3 -25 -1 -25 3 0 5 11 9 25 9 14 0 25 -2 25
-4z m53 -3 c-7 -2 -19 -2 -25 0 -7 3 -2 5 12 5 14 0 19 -2 13 -5z m-1886 -43
c-1 -11 -5 -20 -9 -20 -10 0 -10 4 -2 24 8 22 13 20 11 -4z m90 14 c-3 -3 -12
-4 -19 -1 -8 3 -5 6 6 6 11 1 17 -2 13 -5z m2318 -4 c3 -5 2 -10 -4 -10 -5 0
-13 5 -16 10 -3 6 -2 10 4 10 5 0 13 -4 16 -10z m-723 -32 c13 -13 17 -18 8
-12 -8 6 -24 16 -35 22 -11 6 -15 12 -8 12 7 0 22 -10 35 -22z m728 2 c0 -5
-4 -10 -10 -10 -5 0 -10 5 -10 10 0 6 5 10 10 10 6 0 10 -4 10 -10z m-2976
-43 c17 -17 22 -31 19 -50 -3 -15 -9 -24 -14 -21 -5 3 -18 0 -30 -6 -43 -24
-78 42 -42 82 22 24 39 23 67 -5z m2920 -2 c-4 -8 -12 -15 -20 -15 -8 0 -11 6
-8 15 4 8 12 15 20 15 8 0 11 -6 8 -15z m67 -1 c12 -14 11 -16 -5 -13 -11 2
-21 10 -24 17 -5 17 13 15 29 -4z m-3806 -101 c4 -79 2 -94 -14 -114 -17 -22
-21 -22 -45 -10 -23 13 -26 21 -27 70 0 31 -4 65 -8 76 -11 28 7 63 38 73 44
16 51 3 56 -95z m1375 86 c0 -5 -4 -9 -10 -9 -5 0 -10 7 -10 16 0 8 5 12 10 9
6 -3 10 -10 10 -16z m1325 -40 c-4 -5 2 -6 11 -2 11 4 15 2 11 -4 -4 -6 -1
-10 6 -9 6 0 13 -2 15 -6 3 -10 3 -10 -68 -2 l-60 7 0 38 0 38 45 -26 c25 -13
43 -29 40 -34z m-1335 1 c0 -5 -4 -10 -10 -10 -5 0 -10 5 -10 10 0 6 5 10 10
10 6 0 10 -4 10 -10z m1780 -19 c0 -4 -11 -6 -25 -3 -14 2 -25 6 -25 8 0 2 11
4 25 4 14 0 25 -4 25 -9z m-197 -48 c-7 -2 -21 -2 -30 0 -10 3 -4 5 12 5 17 0
24 -2 18 -5z m124 -9 c-3 -3 -12 -4 -19 -1 -8 3 -5 6 6 6 11 1 17 -2 13 -5z
m-1377 -34 c-8 -5 -19 -10 -25 -10 -5 0 -3 5 5 10 8 5 20 10 25 10 6 0 3 -5
-5 -10z m930 0 c0 -5 -4 -10 -10 -10 -5 0 -10 5 -10 10 0 6 5 10 10 10 6 0 10
-4 10 -10z m30 0 c0 -5 -5 -10 -11 -10 -5 0 -7 5 -4 10 3 6 8 10 11 10 2 0 4
-4 4 -10z m113 -7 c-18 -2 -48 -2 -65 0 -18 2 -4 4 32 4 36 0 50 -2 33 -4z
m282 -3 c3 -6 -1 -7 -9 -4 -18 7 -21 14 -7 14 6 0 13 -4 16 -10z m-1318 -56
c-3 -3 -12 -4 -19 -1 -8 3 -5 6 6 6 11 1 17 -2 13 -5z m1296 -1 c-13 -2 -33
-2 -45 0 -13 2 -3 4 22 4 25 0 35 -2 23 -4z m-353 -33 c0 -16 -4 -30 -10 -30
-5 0 -10 14 -10 30 0 17 5 30 10 30 6 0 10 -13 10 -30z m40 10 c0 -11 -2 -20
-4 -20 -2 0 -6 9 -9 20 -3 11 -1 20 4 20 5 0 9 -9 9 -20z m-2151 -114 c19 -15
53 -26 87 -31 46 -5 53 -9 43 -21 -9 -12 -6 -14 20 -14 19 0 30 -4 26 -10 -3
-5 -16 -10 -28 -10 -18 0 -19 -2 -7 -10 8 -5 27 -10 43 -10 15 0 28 -6 28 -12
1 -7 5 1 9 17 7 27 8 26 9 -15 l1 -45 -77 -2 c-295 -8 -386 -22 -295 -45 22
-6 32 -15 32 -28 0 -18 7 -20 66 -20 41 0 63 4 59 10 -3 6 -18 10 -33 10 -15
0 -38 3 -51 7 -23 6 -23 7 -5 14 25 10 193 10 219 0 16 -7 14 -9 -14 -14 -19
-4 -44 -7 -57 -7 -13 0 -24 -4 -24 -10 0 -6 37 -9 90 -7 86 2 89 1 58 -12 -18
-8 -45 -20 -60 -27 -15 -7 -37 -10 -48 -7 -11 3 -20 0 -20 -6 0 -6 -7 -11 -15
-11 -8 0 -14 5 -12 12 4 21 -34 21 -56 0 -20 -18 -27 -19 -64 -9 -33 8 -51 8
-76 -1 -47 -17 -119 -22 -134 -10 -9 7 -13 7 -13 -2 0 -8 -12 -11 -35 -8 -26
3 -35 0 -35 -10 0 -12 9 -13 43 -8 72 13 637 17 637 6 0 -6 15 -20 33 -31 17
-12 23 -18 13 -15 -18 6 -211 7 -641 2 -82 0 -153 -5 -156 -10 -4 -4 -16 1
-28 13 l-21 21 24 0 c54 0 84 11 79 30 -4 15 3 20 34 25 21 4 57 15 80 26 24
10 56 19 73 19 33 0 38 11 15 30 -8 7 -13 16 -10 20 3 5 -9 20 -27 34 -37 29
-37 29 72 46 41 6 87 14 103 18 l27 7 -25 28 c-18 18 -36 27 -58 27 -28 1 -30
2 -15 13 11 9 14 22 11 40 -5 26 -3 27 34 27 26 0 50 -8 72 -24z m3616 -47
c110 -15 108 -15 94 -40 -10 -20 -17 -21 -98 -16 -104 6 -121 12 -121 43 0 28
9 29 125 13z m-4195 -3 c0 -32 -31 -45 -60 -26 -13 9 -13 11 0 20 15 10 60 14
60 6z m2397 -21 c10 -22 9 -25 -10 -26 -20 -1 -20 -2 3 -9 14 -4 19 -8 13 -9
-8 -1 -14 -17 -15 -38 -1 -37 -1 -37 -5 -5 -2 17 -8 32 -14 32 -14 0 -11 38 4
43 9 3 9 7 -2 20 -11 14 -11 17 0 17 8 0 19 -11 26 -25z m635 3 c-7 -7 -12 -8
-12 -2 0 14 12 26 19 19 2 -3 -1 -11 -7 -17z m-540 -33 c-2 -24 -11 -50 -20
-57 -13 -11 -14 -10 -4 9 7 12 12 35 12 51 0 23 7 42 14 42 1 0 0 -20 -2 -45z
m-2235 29 c-3 -3 -12 -4 -19 -1 -8 3 -5 6 6 6 11 1 17 -2 13 -5z m1188 -14 c3
-5 -1 -10 -9 -10 -9 0 -16 5 -16 10 0 6 4 10 9 10 6 0 13 -4 16 -10z m52 4
c-3 -3 -12 -4 -19 -1 -8 3 -5 6 6 6 11 1 17 -2 13 -5z m790 -16 c-3 -8 -6 -5
-6 6 -1 11 2 17 5 13 3 -3 4 -12 1 -19z m2283 -14 c41 -8 92 -14 112 -14 20 0
43 -3 52 -6 24 -9 -6 -34 -42 -34 -38 0 -292 39 -305 47 -6 3 -2 12 8 19 19
14 38 13 175 -12z m-1142 9 c-10 -2 -26 -2 -35 0 -10 3 -2 5 17 5 19 0 27 -2
18 -5z m-1128 -46 c0 -5 -4 -5 -10 -2 -5 3 -10 14 -10 23 0 15 2 15 10 2 5 -8
10 -19 10 -23z m860 11 c0 -9 3 -10 8 -2 4 6 16 10 27 7 11 -2 54 -6 95 -9
104 -8 104 -17 0 -11 -47 2 -96 1 -110 -3 -19 -5 -33 -2 -49 11 l-23 19 26 0
c14 0 26 -6 26 -12z m-1630 -6 c0 -5 -28 -9 -62 -9 -56 -1 -59 0 -23 7 58 11
85 11 85 2z m243 -29 c-7 -2 -19 -2 -25 0 -7 3 -2 5 12 5 14 0 19 -2 13 -5z
m-996 -49 c-3 -3 -12 -4 -19 -1 -8 3 -5 6 6 6 11 1 17 -2 13 -5z m1003 -25
c-65 -11 -122 -10 -116 0 3 5 14 7 24 5 9 -3 35 2 57 9 30 11 45 12 60 4 18
-10 15 -12 -25 -18z m1239 16 c38 -12 22 -23 -19 -14 -22 5 -45 8 -51 7 -6 -2
-13 2 -16 8 -4 12 48 11 86 -1z m-1559 -5 c0 -5 -2 -10 -4 -10 -3 0 -8 5 -11
10 -3 6 -1 10 4 10 6 0 11 -4 11 -10z m70 -6 c0 -2 -11 -4 -25 -4 -14 0 -25 4
-25 9 0 4 11 6 25 3 14 -2 25 -6 25 -8z m1780 6 c0 -5 -7 -10 -16 -10 -8 0
-12 5 -9 10 3 6 10 10 16 10 5 0 9 -4 9 -10z m133 3 c-18 -2 -48 -2 -65 0 -18
2 -4 4 32 4 36 0 50 -2 33 -4z m-1823 -13 c-20 -13 -33 -13 -25 0 3 6 14 10
23 10 15 0 15 -2 2 -10z m1470 0 c0 -5 -9 -10 -20 -10 -11 0 -20 5 -20 10 0 6
9 10 20 10 11 0 20 -4 20 -10z m55 0 c3 -5 -1 -10 -10 -10 -9 0 -13 5 -10 10
3 6 8 10 10 10 2 0 7 -4 10 -10z m45 0 c0 -5 -7 -10 -16 -10 -8 0 -12 5 -9 10
3 6 10 10 16 10 5 0 9 -4 9 -10z m40 0 c0 -5 -4 -10 -10 -10 -5 0 -10 5 -10
10 0 6 5 10 10 10 6 0 10 -4 10 -10z m-427 -37 c-7 -2 -19 -2 -25 0 -7 3 -2 5
12 5 14 0 19 -2 13 -5z m-416 -19 c-3 -3 -12 -4 -19 -1 -8 3 -5 6 6 6 11 1 17
-2 13 -5z m-670 -10 c-3 -3 -12 -4 -19 -1 -8 3 -5 6 6 6 11 1 17 -2 13 -5z
m1310 0 c-3 -3 -12 -4 -19 -1 -8 3 -5 6 6 6 11 1 17 -2 13 -5z m1133 -1 c-1
-23 -19 -34 -45 -27 -26 7 -27 8 -10 20 20 15 55 19 55 7z m-4224 -12 c3 5 11
6 17 2 6 -4 27 -6 47 -4 27 1 32 -1 23 -10 -15 -15 -113 -18 -113 -4 0 6 -4 4
-9 -4 -6 -9 -10 -10 -16 -2 -5 9 -10 9 -21 0 -11 -9 -14 -9 -14 1 0 7 -7 10
-16 6 -9 -3 -21 -3 -27 1 -17 11 62 20 95 12 15 -4 30 -3 34 2z m231 -8 c-9
-9 -20 -13 -24 -9 -4 4 -1 11 7 16 25 16 35 11 17 -7z m4032 3 c7 -8 8 -17 3
-20 -6 -3 -12 3 -15 14 -6 24 -4 25 12 6z m-4409 -6 c0 -5 -7 -10 -15 -10 -8
0 -15 5 -15 10 0 6 7 10 15 10 8 0 15 -4 15 -10z m4460 -1 c0 -5 -4 -8 -9 -4
-5 3 -13 -4 -16 -16 -4 -11 -9 -18 -12 -16 -7 8 16 47 27 47 6 0 10 -5 10 -11z
m90 1 c0 -5 -4 -10 -10 -10 -5 0 -10 5 -10 10 0 6 5 10 10 10 6 0 10 -4 10
-10z m44 1 c3 -5 -1 -11 -9 -15 -15 -6 -29 7 -18 18 9 9 21 8 27 -3z m-217
-22 c-4 -15 -2 -19 9 -15 9 3 12 1 9 -4 -4 -6 7 -10 24 -10 16 0 33 -4 36 -10
5 -8 -18 -8 -102 2 -9 1 -7 10 5 30 19 33 26 36 19 7z m127 6 c3 -9 0 -15 -9
-15 -8 0 -15 7 -15 15 0 8 4 15 9 15 5 0 11 -7 15 -15z m-2411 -2 c-7 -2 -21
-2 -30 0 -10 3 -4 5 12 5 17 0 24 -2 18 -5z m2017 -13 c-6 -11 -16 -18 -21
-14 -6 3 -3 12 8 20 24 18 26 17 13 -6z m60 5 c0 -8 -4 -15 -8 -15 -5 0 -9 7
-9 15 0 8 4 15 9 15 4 0 8 -7 8 -15z m155 5 c3 -5 -1 -10 -9 -10 -9 0 -16 5
-16 10 0 6 4 10 9 10 6 0 13 -4 16 -10z m-108 -6 c-3 -3 -12 -4 -19 -1 -8 3
-5 6 6 6 11 1 17 -2 13 -5z m68 -4 c-3 -5 1 -10 9 -10 9 0 16 -4 16 -10 0 -15
-27 -12 -44 6 -21 20 -20 24 5 24 11 0 17 -4 14 -10z m175 0 c0 -5 -4 -10 -10
-10 -5 0 -10 5 -10 10 0 6 5 10 10 10 6 0 10 -4 10 -10z m165 0 c3 -5 -1 -10
-9 -10 -9 0 -16 5 -16 10 0 6 4 10 9 10 6 0 13 -4 16 -10z m-560 -10 c-3 -5
-16 -10 -28 -9 -21 0 -21 1 -2 9 28 12 37 12 30 0z m-3985 -10 c0 13 1 13 10
0 5 -8 10 -10 10 -4 0 6 11 12 25 12 15 0 25 -6 25 -14 0 -10 -13 -14 -45 -14
-36 0 -45 3 -45 18 0 14 2 15 10 2 9 -13 10 -13 10 0z m190 3 c-14 -3 -28 -10
-32 -17 -6 -8 -11 -7 -18 4 -9 13 -10 13 -10 0 0 -12 -2 -12 -9 -1 -6 9 -11
10 -15 2 -10 -16 -26 -14 -26 4 0 12 14 15 68 14 37 -1 56 -4 42 -6z m-245
-13 c3 -5 1 -10 -4 -10 -6 0 -11 5 -11 10 0 6 2 10 4 10 3 0 8 -4 11 -10z
m4205 -4 c0 -3 -4 -8 -10 -11 -5 -3 -10 -1 -10 4 0 6 5 11 10 11 6 0 10 -2 10
-4z m54 -12 c3 -9 4 -19 2 -22 -2 -4 46 -6 107 -4 113 3 162 -2 153 -17 -3 -4
6 -6 21 -3 18 3 24 1 19 -7 -4 -6 -3 -11 3 -11 5 0 12 6 14 13 4 9 8 9 14 1 4
-7 17 -14 28 -17 12 -3 4 -6 -20 -7 -22 -2 5 -6 60 -10 127 -8 175 -29 68 -30
-40 0 -73 -4 -73 -8 0 -5 -28 -7 -62 -6 -35 1 -69 -3 -75 -8 -9 -7 -13 -7 -13
1 0 6 -7 11 -16 11 -14 0 -14 -3 -4 -15 10 -13 9 -15 -11 -15 -20 0 -21 -2 -9
-11 12 -8 9 -9 -10 -3 -14 4 -41 6 -61 6 -24 -1 -44 6 -59 20 -20 19 -34 22
-92 20 -40 -1 -68 2 -68 8 0 6 19 10 42 10 58 0 42 12 -72 54 l-95 35 60 -5
c33 -3 72 -7 86 -9 15 -2 35 2 45 10 11 8 14 14 7 15 -7 0 -13 5 -13 10 0 16
17 12 24 -6z m-1341 -1 c-7 -2 -21 -2 -30 0 -10 3 -4 5 12 5 17 0 24 -2 18 -5z
m-1893 -18 c0 -3 -34 -21 -75 -40 -41 -20 -75 -40 -75 -45 0 -6 22 -10 48 -10
35 0 54 -5 66 -19 14 -15 33 -20 99 -22 149 -4 162 -5 177 -12 8 -4 28 -5 45
-3 16 2 45 -1 64 -6 24 -7 36 -6 41 2 4 7 13 9 19 6 15 -10 14 -39 -1 -34 -7
3 -18 -1 -25 -7 -6 -7 -45 -13 -89 -14 -43 -1 -81 -4 -86 -7 -5 -3 -52 -8
-106 -10 -53 -3 -108 -9 -122 -14 -66 -23 -366 -30 -440 -10 -19 5 -57 12 -85
15 -71 8 -125 26 -125 42 0 18 -16 16 -48 -7 -15 -11 -36 -18 -47 -15 -11 2
-22 4 -25 4 -3 1 2 6 10 11 11 8 8 9 -12 4 -18 -4 -28 -2 -28 5 0 6 -4 11 -10
11 -5 0 -10 -7 -10 -15 0 -18 -31 -20 -48 -3 -10 10 -15 10 -21 -1 -5 -7 -14
-10 -20 -7 -6 4 -21 0 -33 -8 -12 -9 -28 -16 -35 -16 -23 0 -14 30 15 48 21
13 27 26 29 54 1 31 -1 35 -12 25 -7 -6 -13 -14 -13 -17 1 -26 -5 -38 -22 -43
-26 -7 -25 11 2 40 18 19 19 27 10 47 -9 20 -8 25 7 29 13 3 17 0 14 -12 -3
-11 2 -17 15 -18 12 -1 19 4 18 15 0 9 7 18 18 20 11 2 16 0 12 -7 -4 -6 -2
-11 3 -11 14 0 14 13 -1 28 -9 9 -3 12 27 11 34 0 37 -2 18 -9 -13 -5 -23 -12
-23 -16 0 -3 6 -4 14 -1 17 7 36 -11 36 -34 0 -9 7 -20 16 -23 8 -3 12 -10 9
-16 -3 -5 -1 -10 4 -10 14 0 14 37 0 45 -6 4 -8 13 -5 21 3 8 0 11 -8 8 -17
-6 -30 12 -16 21 6 4 7 11 4 17 -4 7 7 8 33 3 22 -3 54 -7 71 -7 17 -1 29 -4
27 -8 -2 -4 9 -6 25 -5 17 1 30 -1 30 -4 0 -8 248 -14 277 -6 13 3 21 10 18
15 -3 6 1 10 10 10 10 0 13 -5 9 -12 -5 -8 0 -7 11 2 13 11 55 17 159 21 78 3
144 6 149 7 4 1 7 0 7 -3z m-1040 -55 c0 -5 -5 -10 -11 -10 -5 0 -7 5 -4 10 3
6 8 10 11 10 2 0 4 -4 4 -10z m2205 -10 c-3 -5 -34 -9 -68 -8 l-62 1 55 7 c30
4 61 7 68 8 7 1 10 -2 7 -8z m75 0 c0 -5 -12 -10 -27 -9 l-28 1 25 8 c14 4 26
8 28 9 1 1 2 -3 2 -9z m160 0 c0 -5 -8 -10 -17 -10 -15 0 -16 2 -3 10 19 12
20 12 20 0z m200 0 c0 -5 -5 -10 -11 -10 -5 0 -7 5 -4 10 3 6 8 10 11 10 2 0
4 -4 4 -10z m195 0 c-3 -5 -17 -10 -31 -10 -14 0 -22 4 -19 10 3 6 17 10 31
10 14 0 22 -4 19 -10z m65 0 c0 -5 -9 -10 -20 -10 -11 0 -20 5 -20 10 0 6 9
10 20 10 11 0 20 -4 20 -10z m170 0 c0 -5 -18 -10 -40 -10 -22 0 -40 5 -40 10
0 6 18 10 40 10 22 0 40 -4 40 -10z m320 -6 c74 -8 137 -18 140 -21 3 -3 -82
-2 -188 2 -134 5 -202 11 -220 21 -25 13 -21 14 53 14 44 0 141 -7 215 -16z
m-3416 -10 c18 -17 13 -34 -10 -34 -11 0 -14 7 -10 23 3 12 3 16 0 10 -3 -7
-13 -13 -22 -13 -15 1 -14 3 2 15 24 18 21 18 40 -1z m66 6 c0 -6 -7 -13 -15
-16 -8 -4 -15 -12 -15 -19 0 -15 -18 -30 -26 -22 -6 6 16 49 31 59 14 11 25
10 25 -2z m-125 -30 c3 -5 1 -10 -4 -10 -6 0 -11 5 -11 10 0 6 2 10 4 10 3 0
8 -4 11 -10z m1490 0 c3 -5 1 -10 -4 -10 -6 0 -11 5 -11 10 0 6 2 10 4 10 3 0
8 -4 11 -10z m1155 -10 c0 -5 -4 -10 -10 -10 -5 0 -10 5 -10 10 0 6 5 10 10
10 6 0 10 -4 10 -10z m220 -5 c-13 -16 -9 -20 40 -29 14 -2 -9 -2 -50 0 -143
9 -167 24 -57 35 34 3 66 7 71 7 5 1 3 -5 -4 -13z m143 4 c-8 -8 -16 -8 -30 0
-16 9 -14 10 12 11 21 0 26 -3 18 -11z m54 5 c-3 -3 -12 -4 -19 -1 -8 3 -5 6
6 6 11 1 17 -2 13 -5z m334 -15 c18 -15 32 -19 59 -14 19 3 41 1 48 -3 8 -6
-22 -11 -79 -15 -74 -6 -97 -4 -116 8 -29 19 -29 32 0 38 47 9 65 6 88 -14z
m-135 -2 c4 -4 5 -9 3 -11 -10 -9 -279 -18 -279 -9 0 6 21 8 49 5 28 -2 67 -1
88 3 33 6 35 9 18 16 -13 6 2 8 47 6 37 -2 70 -6 74 -10z m406 -11 c21 -15 21
-16 3 -16 -11 0 -27 4 -34 9 -9 6 -22 6 -34 -1 -21 -11 -81 8 -71 23 8 14 111
2 136 -15z m333 14 c3 -5 2 -10 -4 -10 -5 0 -13 5 -16 10 -3 6 -2 10 4 10 5 0
13 -4 16 -10z m120 -7 c41 -19 45 -33 11 -33 -52 0 -86 12 -86 31 0 24 27 25
75 2z m150 -3 c-3 -5 -11 -10 -16 -10 -6 0 -7 5 -4 10 3 6 11 10 16 10 6 0 7
-4 4 -10z m85 1 c0 -16 -19 -23 -40 -16 -30 10 -24 25 10 25 17 0 30 -4 30 -9z
m79 -5 c16 -19 0 -27 -38 -20 -32 7 -40 19 -18 27 23 10 45 7 56 -7z m226 4
c3 -5 -3 -10 -14 -10 -12 0 -21 5 -21 10 0 6 6 10 14 10 8 0 18 -4 21 -10z
m35 -4 c0 -3 -4 -8 -10 -11 -5 -3 -10 -1 -10 4 0 6 5 11 10 11 6 0 10 -2 10
-4z m-2890 -16 c0 -5 -4 -10 -10 -10 -5 0 -10 5 -10 10 0 6 5 10 10 10 6 0 10
-4 10 -10z m130 2 c0 -13 -44 -27 -72 -24 -50 6 -32 28 22 30 28 0 50 -2 50
-6z m2585 -1 c3 -5 1 -12 -4 -15 -5 -3 -11 1 -15 9 -6 16 9 21 19 6z m915 -1
c8 -5 11 -10 5 -10 -5 0 -17 5 -25 10 -8 5 -10 10 -5 10 6 0 17 -5 25 -10z
m-953 -6 c-3 -3 -12 -4 -19 -1 -8 3 -5 6 6 6 11 1 17 -2 13 -5z m-2467 -8 c0
-11 -19 -15 -25 -6 -3 5 1 10 9 10 9 0 16 -2 16 -4z m160 -6 c0 -5 -4 -10 -10
-10 -5 0 -10 5 -10 10 0 6 5 10 10 10 6 0 10 -4 10 -10z m780 0 c0 -5 -4 -10
-10 -10 -5 0 -10 5 -10 10 0 6 5 10 10 10 6 0 10 -4 10 -10z m790 0 c0 -5 -4
-10 -9 -10 -6 0 -13 5 -16 10 -3 6 1 10 9 10 9 0 16 -4 16 -10z m-2160 -16 c0
-2 -7 -4 -15 -4 -8 0 -15 4 -15 10 0 5 7 7 15 4 8 -4 15 -8 15 -10z m277 -5
c26 -10 26 -12 8 -19 -11 -4 -24 -5 -30 -1 -5 3 -23 6 -39 6 -16 0 -31 6 -33
13 -6 15 55 16 94 1z m142 -15 c-14 -17 -79 -16 -79 1 0 12 11 15 44 13 30 -2
41 -6 35 -14z m166 6 c3 -5 1 -10 -4 -10 -6 0 -11 5 -11 10 0 6 2 10 4 10 3 0
8 -4 11 -10z m795 -45 c0 -8 -4 -15 -10 -15 -5 0 -10 7 -10 15 0 8 5 15 10 15
6 0 10 -7 10 -15z m42 -17 c-9 -9 -12 -7 -12 12 0 19 3 21 12 12 9 -9 9 -15 0
-24z m358 17 c0 -10 -10 -15 -32 -15 -31 1 -32 1 -14 15 25 19 46 19 46 0z
m-79 -7 c1 -7 2 -18 3 -24 0 -7 12 -20 25 -31 16 -13 22 -26 18 -37 -10 -26
-33 -29 -81 -11 l-45 17 32 22 c24 17 32 29 30 49 -2 26 16 40 18 15z m256 6
c-3 -3 -12 -4 -19 -1 -8 3 -5 6 6 6 11 1 17 -2 13 -5z m151 1 c-3 -3 -22 -6
-43 -7 -27 -1 -39 -6 -43 -20 -4 -18 -27 -23 -56 -12 -23 9 -9 24 22 25 l27 1
-25 8 c-18 6 -3 8 49 9 41 1 72 -1 69 -4z m-433 -14 c7 -12 -12 -24 -25 -16
-11 7 -4 25 10 25 5 0 11 -4 15 -9z m-326 -151 c-4 -36 -13 -90 -19 -120 -6
-30 -10 -93 -9 -140 4 -159 -35 -258 -71 -183 -21 45 -25 263 -6 361 17 89 26
111 62 155 13 16 24 36 24 46 0 10 3 21 8 25 12 13 20 -76 11 -144z m792 127
c-5 -5 -18 -7 -28 -3 -14 6 -15 9 -4 16 19 11 46 1 32 -13z m-213 1 c-3 -7
-17 -13 -31 -13 -30 -1 -36 11 -9 18 32 9 44 7 40 -5z m630 -6 c3 -10 -5 -13
-29 -10 -18 2 -34 9 -37 16 -3 10 5 13 29 10 18 -2 34 -9 37 -16z m-1358 -36
c0 -19 -4 -38 -10 -41 -6 -4 -10 10 -10 34 0 23 5 41 10 41 6 0 10 -15 10 -34z
m-317 -283 c2 -144 -3 -178 -22 -157 -5 5 -11 106 -14 224 l-5 215 19 -65 c15
-50 20 -101 22 -217z m990 195 c-4 -9 -33 -11 -33 -3 0 2 6 16 12 31 l13 27 6
-24 c3 -13 4 -27 2 -31z m-1476 -138 c7 -14 11 -52 9 -90 -3 -80 -34 -140 -72
-140 -31 0 -44 32 -45 110 -1 60 9 89 44 128 26 28 47 25 64 -8z m750 18 c4
-7 8 -60 9 -118 1 -71 7 -122 19 -158 19 -56 16 -132 -6 -158 -19 -23 -26 -8
-38 88 -15 111 -28 158 -45 158 -37 0 -70 91 -53 145 15 46 26 55 68 55 21 0
41 -6 46 -12z m-1349 -65 c24 22 107 20 163 -4 43 -19 48 -19 90 -4 65 25 91
28 123 15 27 -10 28 -13 23 -52 -5 -35 -1 -47 19 -71 13 -16 25 -43 25 -60 10
-227 3 -321 -24 -340 -7 -4 -26 -6 -43 -3 -22 3 -36 -1 -47 -15 -25 -28 -51
-23 -86 16 -32 37 -39 59 -21 70 13 8 13 165 0 185 -17 27 -45 -2 -48 -51 -4
-55 -16 -69 -58 -69 -28 0 -35 5 -40 25 -3 14 -11 29 -18 33 -6 4 -24 26 -39
50 -23 36 -32 42 -50 36 -12 -3 -26 -10 -31 -15 -14 -12 -46 -11 -46 1 0 6
-11 15 -25 20 -68 26 -111 51 -124 71 -12 21 -11 25 15 49 16 14 38 43 49 64
11 21 30 46 43 56 23 18 25 18 78 -2 49 -19 56 -19 72 -5z m-1210 3 c31 -10
30 -55 -2 -85 -20 -19 -31 -22 -64 -16 -45 7 -86 44 -80 71 5 30 91 48 146 30z
m932 -16 c0 -5 -7 -10 -16 -10 -8 0 -12 5 -9 10 3 6 10 10 16 10 5 0 9 -4 9
-10z m3400 -10 l35 -19 -30 -1 c-30 0 -55 15 -55 32 0 12 11 9 50 -12z m-182
-17 c-10 -2 -28 -2 -40 0 -13 2 -5 4 17 4 22 1 32 -1 23 -4z m282 -43 c11 -7
7 -10 -17 -10 -18 0 -33 5 -33 10 0 13 30 13 50 0z m-502 -143 c3 -33 7 -38
42 -47 76 -20 49 -47 -35 -34 l-45 6 0 43 c0 24 3 51 6 60 11 27 29 11 32 -28z
m852 9 c0 -18 -9 -27 -43 -40 -50 -19 -57 -19 -94 -5 -22 8 -24 12 -13 19 8 6
27 10 42 10 17 0 33 8 40 20 8 12 24 20 40 20 23 0 28 -4 28 -24z m-962 -64
c5 -15 -39 -37 -47 -24 -4 7 -12 8 -21 2 -15 -9 -50 4 -50 20 0 5 19 10 43 12
58 4 70 3 75 -10z m752 -92 c-8 -5 -15 -17 -15 -27 0 -23 -37 -29 -89 -13 -32
10 -37 14 -24 21 9 5 25 8 35 7 10 0 27 0 38 1 l20 2 -20 9 c-15 7 -9 9 25 9
32 1 41 -2 30 -9z m-2080 -74 c0 -3 -4 -8 -10 -11 -5 -3 -10 -1 -10 4 0 6 5
11 10 11 6 0 10 -2 10 -4z m-1151 -19 c14 -17 4 -27 -26 -27 -35 0 -28 35 8
39 4 1 12 -5 18 -12z"/>
<path d="M2570 2331 c0 -7 -4 -10 -9 -7 -9 6 -8 -50 1 -60 3 -3 9 11 12 32 4
20 5 39 2 42 -3 3 -6 0 -6 -7z"/>
<path d="M2923 2223 c-13 -2 -23 -9 -23 -14 0 -12 10 -11 40 6 25 15 23 16
-17 8z"/>
<path d="M3512 2064 c3 -50 18 -54 18 -5 0 23 -5 41 -10 41 -6 0 -10 -16 -8
-36z"/>
<path d="M926 1161 c-3 -5 1 -11 9 -14 9 -4 12 -1 8 9 -6 16 -10 17 -17 5z"/>
<path d="M1373 1163 c9 -2 23 -2 30 0 6 3 -1 5 -18 5 -16 0 -22 -2 -12 -5z"/>
<path d="M887 1133 c-11 -10 -8 -20 6 -26 8 -3 13 3 13 14 0 19 -8 24 -19 12z"/>
<path d="M731 1121 c-9 -6 -10 -11 -2 -15 6 -4 11 -2 11 3 0 6 8 11 18 11 12
0 14 -2 4 -8 -8 -6 -2 -9 17 -9 24 0 27 3 16 14 -15 15 -44 17 -64 4z"/>
<path d="M1005 1100 c-3 -5 -1 -10 4 -10 6 0 11 5 11 10 0 6 -2 10 -4 10 -3 0
-8 -4 -11 -10z"/>
<path d="M917 1081 c-28 -18 -59 -18 -82 0 -6 5 -16 0 -23 -11 -14 -23 -2 -33
31 -24 14 3 28 1 32 -5 8 -14 62 16 76 42 12 22 1 22 -34 -2z"/>
<path d="M1000 1066 l-34 -12 34 -17 c20 -10 36 -13 40 -8 9 15 60 32 73 25 8
-5 9 -4 2 3 -17 18 -78 22 -115 9z"/>
<path d="M3688 2563 c7 -3 16 -2 19 1 4 3 -2 6 -13 5 -11 0 -14 -3 -6 -6z"/>
<path d="M3760 2408 c0 -18 24 -24 54 -12 27 10 18 22 -19 26 -29 3 -35 1 -35
-14z"/>
<path d="M3978 2353 c7 -3 16 -2 19 1 4 3 -2 6 -13 5 -11 0 -14 -3 -6 -6z"/>
<path d="M3938 2333 c-10 -2 -18 -11 -18 -18 0 -7 -6 -16 -12 -18 -7 -3 4 -6
25 -6 20 -1 37 3 37 8 0 5 3 16 6 25 6 16 -3 18 -38 9z"/>
<path d="M3985 10 c-3 -5 3 -10 15 -10 12 0 18 5 15 10 -3 6 -10 10 -15 10 -5
0 -12 -4 -15 -10z"/>
</g>
</svg>
